<?xml version="1.0" encoding="UTF-8" standalone="no"?>
<!-- Created with Inkscape (http://www.inkscape.org/) -->

<svg
   xmlns:dc="http://purl.org/dc/elements/1.1/"
   xmlns:cc="http://creativecommons.org/ns#"
   xmlns:rdf="http://www.w3.org/1999/02/22-rdf-syntax-ns#"
   xmlns:svg="http://www.w3.org/2000/svg"
   xmlns="http://www.w3.org/2000/svg"
   xmlns:sodipodi="http://sodipodi.sourceforge.net/DTD/sodipodi-0.dtd"
   xmlns:inkscape="http://www.inkscape.org/namespaces/inkscape"
   width="32"
   height="32"
   id="svg3021"
   version="1.1"
   inkscape:version="0.48.5 r10040"
   sodipodi:docname="ghost.svg"
   inkscape:export-filename="C:\Users\boman\Dropbox\sideprojects\connectiq\Packman\resources\images\ghost.png"
   inkscape:export-xdpi="90"
   inkscape:export-ydpi="90">
  <defs
     id="defs3023" />
  <sodipodi:namedview
     id="base"
     pagecolor="#ffffff"
     bordercolor="#666666"
     borderopacity="1.0"
     inkscape:pageopacity="0.0"
     inkscape:pageshadow="2"
     inkscape:zoom="11.2"
     inkscape:cx="21.241217"
     inkscape:cy="2.0962624"
     inkscape:document-units="px"
     inkscape:current-layer="layer1"
     showgrid="false"
     inkscape:window-width="944"
     inkscape:window-height="1042"
     inkscape:window-x="-32000"
     inkscape:window-y="-32000"
     inkscape:window-maximized="0" />
  <metadata
     id="metadata3026">
    <rdf:RDF>
      <cc:Work
         rdf:about="">
        <dc:format>image/svg+xml</dc:format>
        <dc:type
           rdf:resource="http://purl.org/dc/dcmitype/StillImage" />
        <dc:title></dc:title>
      </cc:Work>
    </rdf:RDF>
  </metadata>
  <g
     inkscape:label="Layer 1"
     inkscape:groupmode="layer"
     id="layer1"
     transform="translate(0,-1020.3622)">
    <g
       id="g4400"
       transform="matrix(0.10404626,0,0,0.10015071,0.03216428,981.62829)">
      <g
         id="g3053">
        <path
           inkscape:export-ydpi="90"
           inkscape:export-xdpi="90"
           inkscape:export-filename="C:\Users\boman\Dropbox\sideprojects\connectiq\packman\resources\images\packman_closed.png"
           sodipodi:type="arc"
           style="fill:#00aaff;fill-opacity:1;stroke:none"
           id="path4320"
           sodipodi:cx="191.07143"
           sodipodi:cy="587.7193"
           sodipodi:rx="153.21428"
           sodipodi:ry="153.21428"
           d="m 344.28571,587.7193 c 0,84.61791 -68.59637,153.21428 -153.21428,153.21428 -84.06057,0 -152.423875,-67.72885 -153.207623,-151.78577 L 191.07143,587.7193 z"
           transform="matrix(-0.99999479,-0.00275428,0.00322838,-0.85314226,342.86096,1017.9896)"
           sodipodi:start="0"
           sodipodi:end="3.1322689" />
        <rect
           inkscape:export-ydpi="90"
           inkscape:export-xdpi="90"
           inkscape:export-filename="C:\Users\boman\Dropbox\sideprojects\connectiq\packman\resources\images\packman_closed.png"
           style="fill:#00aaff;fill-opacity:1;stroke:none"
           id="rect4340"
           width="306.38522"
           height="127.36263"
           x="0.46174759"
           y="514.22736" />
        <path
           inkscape:export-ydpi="90"
           inkscape:export-xdpi="90"
           inkscape:export-filename="C:\Users\boman\Dropbox\sideprojects\connectiq\packman\resources\images\packman_closed.png"
           style="fill:#00aaff;fill-opacity:1;stroke:none"
           d="m 0.37880716,639.04605 c 0,0 16.08219784,66.13135 46.69781284,67.22104 32.739196,1.16528 56.84951,-68.08284 56.84951,-68.08284 0,0 22.43959,68.36492 54.81919,68.08286 31.53403,-0.27471 51.77365,-67.22106 51.77365,-67.22106 0,0 14.13046,64.42959 43.6523,65.49743 31.13304,1.12613 52.78883,-65.49743 52.78883,-65.49743 z"
           id="path4342"
           inkscape:connector-curvature="0"
           sodipodi:nodetypes="cacscscc" />
        <path
           inkscape:export-ydpi="90"
           inkscape:export-xdpi="90"
           inkscape:export-filename="C:\Users\boman\Dropbox\sideprojects\connectiq\packman\resources\images\packman_closed.png"
           sodipodi:type="arc"
           style="fill:#ffffff;fill-opacity:1;stroke:none"
           id="path4346"
           sodipodi:cx="-271.73105"
           sodipodi:cy="329.09296"
           sodipodi:rx="51.51778"
           sodipodi:ry="51.51778"
           d="m -220.21327,329.09296 c 0,28.45248 -23.06529,51.51778 -51.51778,51.51778 -28.45248,0 -51.51778,-23.0653 -51.51778,-51.51778 0,-28.45249 23.0653,-51.51778 51.51778,-51.51778 28.45249,0 51.51778,23.06529 51.51778,51.51778 z"
           transform="matrix(0.90196079,0,0,0.76950488,332.97401,246.43125)" />
        <path
           inkscape:export-ydpi="90"
           inkscape:export-xdpi="90"
           inkscape:export-filename="C:\Users\boman\Dropbox\sideprojects\connectiq\packman\resources\images\packman_closed.png"
           sodipodi:type="arc"
           style="fill:#ffffff;fill-opacity:1;stroke:none"
           id="path4346-3"
           sodipodi:cx="-271.73105"
           sodipodi:cy="329.09296"
           sodipodi:rx="51.51778"
           sodipodi:ry="51.51778"
           d="m -220.21327,329.09296 c 0,28.45248 -23.06529,51.51778 -51.51778,51.51778 -28.45248,0 -51.51778,-23.0653 -51.51778,-51.51778 0,-28.45249 23.0653,-51.51778 51.51778,-51.51778 28.45249,0 51.51778,23.06529 51.51778,51.51778 z"
           transform="matrix(0.90196079,0,0,0.76950488,460.25324,247.29307)" />
        <path
           inkscape:export-ydpi="90"
           inkscape:export-xdpi="90"
           inkscape:export-filename="C:\Users\boman\Dropbox\sideprojects\connectiq\packman\resources\images\packman_closed.png"
           sodipodi:type="arc"
           style="fill:#0000ff;fill-opacity:1;stroke:none"
           id="path4380"
           sodipodi:cx="14.142136"
           sodipodi:cy="255.35182"
           sodipodi:rx="41.416256"
           sodipodi:ry="41.416256"
           d="m 55.558392,255.35182 c 0,22.87357 -18.54269,41.41626 -41.416256,41.41626 -22.8735669,0 -41.416256,-18.54269 -41.416256,-41.41626 0,-22.87356 18.5426891,-41.41625 41.416256,-41.41625 22.873566,0 41.416256,18.54269 41.416256,41.41625 z"
           transform="matrix(0.43902441,0,0,0.37455223,113.9994,404.0273)" />
        <path
           inkscape:export-ydpi="90"
           inkscape:export-xdpi="90"
           inkscape:export-filename="C:\Users\boman\Dropbox\sideprojects\connectiq\packman\resources\images\packman_closed.png"
           sodipodi:type="arc"
           style="fill:#0000ff;fill-opacity:1;stroke:none"
           id="path4380-1"
           sodipodi:cx="14.142136"
           sodipodi:cy="255.35182"
           sodipodi:rx="41.416256"
           sodipodi:ry="41.416256"
           d="m 55.558392,255.35182 c 0,22.87357 -18.54269,41.41626 -41.416256,41.41626 -22.8735669,0 -41.416256,-18.54269 -41.416256,-41.41626 0,-22.87356 18.5426891,-41.41625 41.416256,-41.41625 22.873566,0 41.416256,18.54269 41.416256,41.41625 z"
           transform="matrix(0.43902441,0,0,0.37455223,245.31924,403.1655)" />
      </g>
    </g>
  </g>
</svg>
