<?xml version="1.0" encoding="UTF-8" standalone="no"?>
<!-- Created with Inkscape (http://www.inkscape.org/) -->

<svg
   xmlns:dc="http://purl.org/dc/elements/1.1/"
   xmlns:cc="http://creativecommons.org/ns#"
   xmlns:rdf="http://www.w3.org/1999/02/22-rdf-syntax-ns#"
   xmlns:svg="http://www.w3.org/2000/svg"
   xmlns="http://www.w3.org/2000/svg"
   xmlns:sodipodi="http://sodipodi.sourceforge.net/DTD/sodipodi-0.dtd"
   xmlns:inkscape="http://www.inkscape.org/namespaces/inkscape"
   width="32"
   height="32"
   id="svg2"
   version="1.1"
   inkscape:version="0.48.5 r10040"
   inkscape:export-filename="C:\Users\Aaron\Dropbox\sideprojects\connectiq\Packman\resources\images\packman_open.png"
   inkscape:export-xdpi="90"
   inkscape:export-ydpi="90"
   sodipodi:docname="packman.svg">
  <defs
     id="defs4" />
  <sodipodi:namedview
     id="base"
     pagecolor="#ffffff"
     bordercolor="#666666"
     borderopacity="1.0"
     inkscape:pageopacity="0.0"
     inkscape:pageshadow="2"
     inkscape:zoom="15.839192"
     inkscape:cx="15.643047"
     inkscape:cy="14.942476"
     inkscape:document-units="px"
     inkscape:current-layer="g4312"
     showgrid="false"
     inkscape:window-width="1920"
     inkscape:window-height="1017"
     inkscape:window-x="3960"
     inkscape:window-y="-8"
     inkscape:window-maximized="1"
     width="65px" />
  <metadata
     id="metadata7">
    <rdf:RDF>
      <cc:Work
         rdf:about="">
        <dc:format>image/svg+xml</dc:format>
        <dc:type
           rdf:resource="http://purl.org/dc/dcmitype/StillImage" />
        <dc:title></dc:title>
      </cc:Work>
    </rdf:RDF>
  </metadata>
  <g
     inkscape:label="Layer 1"
     inkscape:groupmode="layer"
     id="layer1"
     transform="translate(0,-1020.3622)">
    <g
       id="g4312"
       transform="matrix(0.09428022,5.0170653e-4,-3.7062875e-4,0.0906038,-17.847617,988.52223)"
       style="stroke:none">
      <path
         inkscape:export-ydpi="89.699997"
         inkscape:export-xdpi="89.699997"
         inkscape:export-filename="C:\Users\Aaron\Dropbox\sideprojects\connectiq\Packman\resources\images\packman_open.png"
         transform="matrix(0.92372385,0.38305908,-0.38305908,0.92372385,1800.2818,1131.7623)"
         sodipodi:end="5.4872612"
         sodipodi:start="0"
         d="m -1377.1429,-10.49496 c 0,97.833296 -79.3096,177.14285 -177.1429,177.14285 -97.8333,0 -177.1428,-79.309554 -177.1428,-177.14285 0,-97.8333 79.3095,-177.14285 177.1428,-177.14285 46.3355,0 90.8264,18.15503 123.9336,50.57243 l -123.9336,126.57042 z"
         sodipodi:ry="177.14285"
         sodipodi:rx="177.14285"
         sodipodi:cy="-10.49496"
         sodipodi:cx="-1554.2858"
         id="path3023"
         style="fill:#ff5500;fill-opacity:1;stroke:none"
         sodipodi:type="arc" />
      <path
         inkscape:export-ydpi="8.1041965"
         inkscape:export-xdpi="8.1041965"
         inkscape:export-filename="C:\Users\Aaron\Dropbox\sideprojects\connectiq\packman\resources\pacman.png"
         transform="matrix(0.54459202,0,0,0.54459202,610.79426,529.34358)"
         d="m -397.14285,-199.06639 c 0,20.51343 -16.62942,37.14286 -37.14286,37.14286 -20.51343,0 -37.14285,-16.62943 -37.14285,-37.14286 0,-20.51343 16.62942,-37.14286 37.14285,-37.14286 20.51344,0 37.14286,16.62943 37.14286,37.14286 z"
         sodipodi:ry="37.142857"
         sodipodi:rx="37.142857"
         sodipodi:cy="-199.06639"
         sodipodi:cx="-434.28571"
         id="path3795"
         style="fill:#000000;fill-opacity:1;stroke:none"
         sodipodi:type="arc" />
    </g>
    <path
       sodipodi:type="arc"
       style="fill:#0000ff;fill-opacity:0;stroke:none"
       id="path4374"
       sodipodi:cx="165.15994"
       sodipodi:cy="484.15137"
       sodipodi:rx="457.09402"
       sodipodi:ry="184.35284"
       d="m 622.25397,484.15137 c 0,101.81526 -204.64797,184.35284 -457.09403,184.35284 -252.446056,0 -457.09402,-82.53758 -457.09402,-184.35284 0,-101.81527 204.647964,-184.35285 457.09402,-184.35285 252.44606,0 457.09403,82.53758 457.09403,184.35285 z" />
  </g>
</svg>
